<svg preserveAspectRatio="none slice" xmlns="http://www.w3.org/2000/svg" width="136.638" height="55.136" viewBox="0 0 136.638 55.136">
  <path id="패스_1" data-name="패스 1" d="M282.206,397.2a6.7,6.7,0,0,0-.825,1.918,4.987,4.987,0,0,0,2.129-.811,1.345,1.345,0,0,0,.315-1.333S282.732,396.472,282.206,397.2Zm-4.968,4.32a1.152,1.152,0,0,0-.261-1.06,4.575,4.575,0,0,1,.411-.746,3.711,3.711,0,0,0,.633.975l1.075-2.206.039.378c-.806,2.648-2.241,10.794,8.527,15.581,0,0-6.59-6.4,6.215-13.746,0,0-10.543,3.076-10.042,9.226,0,0-3.426-2.13-4.245-8.057.266.257.826.712,1.287.528.625-.251.939-.816,1.631-1.82a2.747,2.747,0,0,0-2.26.375l-.694.641c-.03-.243-.059-.486-.079-.743a3.61,3.61,0,0,0,1.843-2.72,5.533,5.533,0,0,0-.257-2.913c.663-.469,1.4-.973,2.264-1.532,0,0-1.018.605-2.267,1.523a6.013,6.013,0,0,0-.959-1.738s-3.656,3.082-3.083,5.233a6.5,6.5,0,0,0,.235.717,2.459,2.459,0,0,0-.612,1.005,1.05,1.05,0,0,0-.874.833,5.858,5.858,0,0,0,.217,1.815A4.346,4.346,0,0,0,277.238,401.519Zm5.31,1.121a1.538,1.538,0,1,0,1.538,1.538A1.538,1.538,0,0,0,282.548,402.64Zm58.02,20.847h8.348a.553.553,0,0,0,.333-.118.432.432,0,0,0,.123-.353.444.444,0,0,0-.123-.34.464.464,0,0,0-.333-.118h-8.348a.467.467,0,0,0-.333.118.448.448,0,0,0-.124.34.436.436,0,0,0,.124.353A.558.558,0,0,0,340.568,423.487Zm.915-5.665h.407v2.721a1.079,1.079,0,0,0,.222.772,1.025,1.025,0,0,0,.745.222h4.188a.453.453,0,0,0,.346-.13.473.473,0,0,0,.124-.34.439.439,0,0,0-.124-.314.453.453,0,0,0-.346-.13h-3.272c-.147,0-.222-.08-.222-.236v-.707h3.494a.453.453,0,0,0,.346-.13.476.476,0,0,0,.124-.34.441.441,0,0,0-.124-.315.454.454,0,0,0-.346-.131h-3.494v-.928h3.508a.552.552,0,0,0,.332-.118.438.438,0,0,0,.124-.353.447.447,0,0,0-.124-.341.462.462,0,0,0-.332-.117h-5.576a.458.458,0,0,0-.346.131.44.44,0,0,0-.123.314.477.477,0,0,0,.123.34A.458.458,0,0,0,341.483,417.822Zm4.607,10.689h.391a.927.927,0,0,0,.773-.261,1.207,1.207,0,0,0,.2-.733v-1.74a1.317,1.317,0,0,0-.2-.779.929.929,0,0,0-.785-.268h-4.344a.46.46,0,0,0-.333.118.446.446,0,0,0-.125.34.439.439,0,0,0,.125.353.5.5,0,0,0,.333.105h3.44a.2.2,0,0,1,.17.065.269.269,0,0,1,.054.171v2.329A.266.266,0,0,0,346.09,428.511Zm11.145-11.84h-1.582a.443.443,0,0,0-.347.138.463.463,0,0,0-.123.32.452.452,0,0,0,.123.333.468.468,0,0,0,.347.124h.407v1.1h-2.2v-.823c0-.34-.162-.51-.484-.51h-1.2a.515.515,0,0,0-.366.131.405.405,0,0,0-.144.312.437.437,0,0,0,.144.341.516.516,0,0,0,.366.132h.183v1.477h-1.531v-1.621c0-.341-.162-.51-.484-.51h-1.268a.452.452,0,0,0-.346.13.439.439,0,0,0-.126.315.469.469,0,0,0,.126.339.449.449,0,0,0,.346.131h.235v3.244a1.074,1.074,0,0,0,.222.772,1.033,1.033,0,0,0,.746.222h2.616a.92.92,0,0,0,.772-.261,1.2,1.2,0,0,0,.2-.733V421.6h2.2v.98a.265.265,0,0,0,.3.3h.392a.92.92,0,0,0,.771-.261,1.2,1.2,0,0,0,.2-.733v-4.71Q357.721,416.671,357.235,416.671Zm-4.879,5.011c0,.156-.074.236-.222.236h-1.087c-.147,0-.222-.08-.222-.236v-1.02h1.531Zm3.7-.994h-2.2V419.6h2.2Zm.81,7.275h-1.7c-.149,0-.223-.08-.223-.237v-.968h1.78a.567.567,0,0,0,.334-.117.446.446,0,0,0,.124-.355v-1.543a1.3,1.3,0,0,0-.2-.778.92.92,0,0,0-.784-.269h-2.46a.465.465,0,0,0-.333.118.446.446,0,0,0-.124.34.439.439,0,0,0,.124.354.5.5,0,0,0,.333.105H355.3a.208.208,0,0,1,.171.065.261.261,0,0,1,.052.17v.982h-2.381a.45.45,0,0,0-.346.13.435.435,0,0,0-.125.313.473.473,0,0,0,.125.342.453.453,0,0,0,.346.129h.144v1.139a1.071,1.071,0,0,0,.223.772,1.028,1.028,0,0,0,.746.222h2.616a.454.454,0,0,0,.347-.131.472.472,0,0,0,.123-.34.445.445,0,0,0-.123-.314A.46.46,0,0,0,356.87,427.963Zm4.539-5.953a4.216,4.216,0,0,0,.366-1.7v-1.14c0-.338-.161-.508-.484-.508h-1.583a.448.448,0,0,0-.347.136.469.469,0,0,0-.124.321.452.452,0,0,0,.124.333.467.467,0,0,0,.347.124h.406v.865a4.439,4.439,0,0,1-.451,2.014,4.771,4.771,0,0,1-1.354,1.609.4.4,0,0,0-.176.322.454.454,0,0,0,.149.345.458.458,0,0,0,.341.17.746.746,0,0,0,.34-.131,10.158,10.158,0,0,0,1.118-.908,5.948,5.948,0,0,0,.831-.963l2.027,1.885a.433.433,0,0,0,.681-.039.428.428,0,0,0,.151-.348.517.517,0,0,0-.177-.32Zm4.985-4.331h-1.583a.444.444,0,0,0-.347.137.464.464,0,0,0-.125.32.454.454,0,0,0,.125.335.47.47,0,0,0,.347.124h.406v7.483a.266.266,0,0,0,.3.3h.391a.926.926,0,0,0,.773-.262,1.2,1.2,0,0,0,.2-.732v-7.2C366.877,417.849,366.717,417.679,366.394,417.679Zm-133.765-15.2h3.614a.242.242,0,0,1,.2.078.31.31,0,0,1,.064.2v3.693a.315.315,0,0,0,.355.357h.467a1.1,1.1,0,0,0,.915-.31,1.433,1.433,0,0,0,.232-.87v-2.994a1.558,1.558,0,0,0-.232-.923,1.1,1.1,0,0,0-.931-.318h-4.685a.558.558,0,0,0-.4.14.53.53,0,0,0-.147.4.52.52,0,0,0,.147.419A.594.594,0,0,0,232.629,402.478Zm8.447,6.314a.371.371,0,0,0,.07-.1v1.471a1.268,1.268,0,0,0,.263.915,1.219,1.219,0,0,0,.885.264h3.878a.541.541,0,0,0,.412-.156.558.558,0,0,0,.147-.4.516.516,0,0,0-.147-.371.541.541,0,0,0-.412-.156h-2.793c-.175,0-.263-.093-.263-.279v-1.506H246a.652.652,0,0,0,.4-.139.521.521,0,0,0,.148-.419v-1.986a1.55,1.55,0,0,0-.233-.923,1.1,1.1,0,0,0-.931-.318h-4a.56.56,0,0,0-.4.139.536.536,0,0,0-.147.4.524.524,0,0,0,.147.419.6.6,0,0,0,.4.124h2.931a.239.239,0,0,1,.2.078.313.313,0,0,1,.062.2v1.32h-3.6a.538.538,0,0,0-.412.155.5.5,0,0,0-.136.31h-9.645a.55.55,0,0,0-.4.139.529.529,0,0,0-.148.4.516.516,0,0,0,.148.418.654.654,0,0,0,.4.14h3.894v4.282a.315.315,0,0,0,.356.357h.465a1.1,1.1,0,0,0,.916-.31,1.432,1.432,0,0,0,.232-.869v-3.46h4.034A.657.657,0,0,0,241.076,408.792Zm7.594-5.584h.48v8.873a.315.315,0,0,0,.358.357h.465a1.1,1.1,0,0,0,.915-.31,1.424,1.424,0,0,0,.233-.868v-8.534q0-.6-.574-.6H248.67a.52.52,0,0,0-.41.162.545.545,0,0,0-.149.381.532.532,0,0,0,.149.4A.552.552,0,0,0,248.67,403.208Zm4.688,8.863h.053a.21.21,0,0,0,.066-.012,1.218,1.218,0,0,1-.237.62,1.859,1.859,0,0,1-.508.455.3.3,0,0,0-.148.166.233.233,0,0,0,.005.171.222.222,0,0,0,.13.112.289.289,0,0,0,.213-.011,2.25,2.25,0,0,0,1.128-.94,2.611,2.611,0,0,0,.362-1.341,1,1,0,0,0-.283-.74.982.982,0,0,0-.71-.277.953.953,0,0,0-.7.266.869.869,0,0,0-.271.645.857.857,0,0,0,.241.626A.911.911,0,0,0,253.358,412.071Zm-1.34,7.853.013-.03s1.382-1.926.262-3.386a3.344,3.344,0,0,0-2.7-1.16,3.744,3.744,0,0,0-.523.032s1.052,0-1.25,3.983S239.07,434.7,239.07,434.7s-1.249,1.725-.459,2.987,1.382,1.859,2.171,2.124,2.236.862,3.091-1.261c.607-1.507,4.457-10.26,6.645-15.221l5.2,8.782s1.053,2.788,2.894,2.124,2.369-1.328.856-3.185C258.194,429.484,253.492,422.217,252.018,419.924Zm10.2-7.731.313,28s-.279,2.5.814,3.576c1.444,1.416,4.33,4.655,4.205-1.011s-1.758-21.591-1.758-21.591S264.976,412.193,262.217,412.193Zm22.732,18.692c-.067-1.519-1.279-1.3-1.279-1.3l1.01-9.1s.193-2.276-1.665-2.277a3.622,3.622,0,0,0-1.229.254,63.473,63.473,0,0,1-9.761,2.023,1.561,1.561,0,0,0-1.751-.723,1.391,1.391,0,0,0-1.008,1.59l1.681,10.982a1.637,1.637,0,0,0-.538,1.662c.2,1.156,1.077,1.3,2.087,1.156s11.174-2.529,11.174-2.529A1.588,1.588,0,0,0,284.949,430.885Zm-5.586-.58-4.107,1.084c-.069-.868-1.414-7.948-1.414-7.948l6.463-1.228C279.9,424.812,279.363,430.3,279.363,430.3Zm9.617-15.686c-.051,0-.1,0-.154.007l-1.211,19.58s-.472,2.241.537,3.034a13.618,13.618,0,0,0,2.222,1.374s1.749.868,1.817-3.4-.337-13.437-.337-13.437S291.6,414.619,288.98,414.619Zm1.479,28.247c-1.615.217-7.473,1.155-7.473,1.155s-3.1.29-2.355-2.671,1.48-4.77-1.077-4.841c-.574-.017-1.109-.033-1.589-.033-1.668,0-2.681.2-2.315,1.26a4.815,4.815,0,0,1,.336,2.746c-.2,1.807-.269,3.974,1.75,5.781s3.366,2.6,6.192,1.878,7.2-3.035,7.945-4.334S292.074,442.65,290.459,442.866Zm-.379-32.887c-.066,2.482,3.048,2.345,5.7,2.414.518.013,1.412-.042,2.514-.139a9,9,0,0,0-1.122,1.1c-1.606,1.87-2.783,5.447-.4,7.447s3.248,2.414,5.435,1.656a5.783,5.783,0,0,0,3.778-4.552c.4-2,.264-3.448-1.392-5.033,0,0-.838-.982.609-1.393,1.666-.208,3.19-.409,4.241-.549l.14,6.468s-.017.859-.048,1.1c-.093.735-.177,2.279.639,2.855.426.3,1.066.818,1.686,1.2a9.07,9.07,0,0,0-4.547,3.028c-1.6,1.816-2.77,5.295-.4,7.238s3.232,2.346,5.41,1.608a5.644,5.644,0,0,0,3.76-4.422,5.4,5.4,0,0,0-1.912-5.229,1.539,1.539,0,0,1,.594-2.211,4.426,4.426,0,0,0-1.087-.193,2.3,2.3,0,0,0,.014-.311c-.035-1.218-.426-6.2-.777-10.52a5.471,5.471,0,0,0,3.553.256l-1.815,6.6s-.221.594-.318.809a1.994,1.994,0,0,0,.189,2.084c.9,1.184,2.883,3.374,3.842-1.124s2.947-14.5,2.947-14.5a4.364,4.364,0,0,0-1.729-5.21l-2.436,8.862a25.973,25.973,0,0,1-4.392.28c-.23-2.764-.408-4.879-.408-4.879s-.577-3.671-3.138-4.381l.156,7.2c-1.54-.1-3.9-.205-6.291-.148l.919-1.915s1.79-2.964-2.186-4.964c0,0-3.163,6.148-3.12,6.873a4.356,4.356,0,0,0,.085.47C294.987,408.544,290.08,409.979,290.08,409.979ZM312.59,426.2c1.386-.469,1.386,2.815.528,4.49a3.952,3.952,0,0,1-2.771,2.145,1.342,1.342,0,0,1-.479.106c-.6,0-.936-.67-.247-2.988A5.838,5.838,0,0,1,312.59,426.2Zm-13.1-8.355a5.954,5.954,0,0,1,2.981-3.861c1.392-.483,1.392,2.9.529,4.62a3.971,3.971,0,0,1-2.781,2.206,1.311,1.311,0,0,1-.482.109C299.133,420.914,298.8,420.223,299.49,417.84ZM346.1,431.051a11.151,11.151,0,0,0-4.385-.271c-2.163.434-10.943,2.1-10.973-.251-.007-.613-.005-1.361,0-1.957,1.328-.2,1.767-1.32,2.283-3.472.742-3.075,1.708-9.109,1.708-9.109s.626-2.959-1.137-3.13c-2.629-.256-3.189,4.041-3.16,6.5a14.775,14.775,0,0,1-4.2,1.007l-.1-4.778s.114-3.7-1.765-3.7a1.239,1.239,0,0,0-.358-.047c-.674,0-2.074.456-2.2,4.2,0,0-.228,5.806.569,8.6.644,2.252,3.125,2.965,5.685,3.6-.226,1.076-.605,2.85-.7,3.125-.477,1.375-1.966,1.873-3.794,2.283-1.4.313-7.623,1.783-14,3.455-6.861,1.8-11.331,2.827-13.1,3.221-.944.21-3.863,1.34-1.879,1.789.264.06,2.486.242,3.017.326,1.6.252,2.219.011,4.442-.326a85.165,85.165,0,0,0,8.816-2.1c7.6-2.034,16.5-4.241,17.944-4.523a79.078,79.078,0,0,1,11.826-1.134c5.693.055,7.668.555,8.71-.326C350.366,433.165,348.062,431.664,346.1,431.051Zm-16.888-5.383a2.385,2.385,0,0,1-.551.068c-1,0-1.817-.761-2.213-3.05,1.362-.064,3.08-.231,3.936-.319C330.284,423.854,330,425.486,329.209,425.668Zm4.363,11.2a6.782,6.782,0,0,0-1-.062c-.248,0-.537.007-.869.035-.561.045-1.291.2-1.513.226a15.437,15.437,0,0,0-2.075.655,17.959,17.959,0,0,0-2.558,1.224c-.9.571-1.723,1.1-1.74,1.117-.2.185-.442.365-.6.5a1.019,1.019,0,0,0-.322,1.206,1.771,1.771,0,0,0,.458.725,15.315,15.315,0,0,0,1.338,1.049,3.9,3.9,0,0,0,1.477.429c1.072.131,1.961-.95,2.781-1.609a15.491,15.491,0,0,1,3.09-1.845c.552-.11.584,1.238.6,1.47.12,1.318.34,4.891.407,5.235.031.164.063.335.1.517.314,1.721,2.321.867,2.774-2.67.479-3.715.406-3.656.476-4.578A3.3,3.3,0,0,0,333.572,436.867Z" transform="translate(-230.239 -393.465)" fill="#fff"/>
</svg>
