<?xml version="1.0" encoding="utf-8"?>
<svg preserveAspectRatio="none slice" width="145" height="127" viewBox="0 0 145 127" xmlns="http://www.w3.org/2000/svg"
     xmlns:xlink="http://www.w3.org/1999/xlink">
    <view id="green" viewBox="0 0 144.64 63.14"/>
    <svg width="144.64" height="63.14" viewBox="-4 -4 144.64 63.14" xmlns="http://www.w3.org/2000/svg">
        <defs>
            <linearGradient id="aa" x1="-58.22" y1="41.55" x2="-58.183" y2="41.55" gradientUnits="objectBoundingBox">
                <stop offset="0" stop-color="#c3d600"/>
                <stop offset="1" stop-color="#00862e"/>
            </linearGradient>
            <linearGradient id="ad" x1="-251.486" y1="29.124" x2="-251.331" y2="29.124" xlink:href="#aa"/>
            <linearGradient id="af" x1="-86.464" y1="61.4" x2="-86.41" y2="61.4" xlink:href="#aa"/>
            <linearGradient id="ah" x1="-273.206" y1="42.344" x2="-273.039" y2="42.344" xlink:href="#aa"/>
            <linearGradient id="aj" x1="-79.967" y1="83.237" x2="-79.917" y2="83.237" xlink:href="#aa"/>
            <linearGradient id="al" x1="-63.466" y1="46.993" x2="-63.428" y2="46.993" xlink:href="#aa"/>
            <linearGradient id="an" x1="-118.499" y1="81.566" x2="-118.427" y2="81.566" xlink:href="#aa"/>
            <linearGradient id="ap" x1="-106.077" y1="43.856" x2="-106.014" y2="43.856" xlink:href="#aa"/>
            <linearGradient id="ar" x1="-24.288" y1="68.073" x2="-24.273" y2="68.073" xlink:href="#aa"/>
            <linearGradient id="at" x1="-103.945" y1="61.031" x2="-103.883" y2="61.031" xlink:href="#aa"/>
            <linearGradient id="av" x1="-104.061" y1="81.416" x2="-103.999" y2="81.416" xlink:href="#aa"/>
            <clipPath id="ab">
                <path data-name="패스 14"
                      d="M1848.481 277.855s1.053 0-1.25 3.982-8.75 15.332-8.75 15.332-1.25 1.726-.46 2.987 1.382 1.859 2.171 2.124 2.237.863 3.092-1.261c.606-1.507 4.456-10.26 6.644-15.221l5.2 8.783s1.054 2.788 2.9 2.124 2.369-1.329.856-3.186c-1.272-1.561-5.973-8.829-7.448-11.121l.012-.03s1.383-1.926.264-3.386a3.348 3.348 0 00-2.7-1.16 3.634 3.634 0 00-.523.033"
                      fill="none"/>
            </clipPath>
            <clipPath id="ac">
                <path data-name="패스 15"
                      d="M1861.94 302.668s-.279 2.5.815 3.575c1.443 1.417 4.329 4.655 4.2-1.012s-1.756-21.59-1.756-21.59-.816-8.974-3.576-8.974z"
                      fill="none"/>
            </clipPath>
            <clipPath id="ae">
                <path data-name="패스 16"
                      d="M1873.253 285.916l6.462-1.229c-.4 2.6-.943 8.092-.943 8.092l-4.106 1.084c-.067-.867-1.413-7.947-1.413-7.947m7.943-4.986a63.519 63.519 0 01-9.761 2.024 1.559 1.559 0 00-1.75-.723 1.393 1.393 0 00-1.01 1.589l1.682 10.982a1.641 1.641 0 00-.538 1.662c.2 1.156 1.077 1.3 2.088 1.156s11.173-2.528 11.173-2.528a1.589 1.589 0 001.279-1.734c-.067-1.518-1.279-1.3-1.279-1.3l1.009-9.1s.193-2.277-1.664-2.278a3.627 3.627 0 00-1.229.254"
                      fill="none"/>
            </clipPath>
            <clipPath id="ag">
                <path data-name="패스 17"
                      d="M1888.235 277.1l-1.211 19.579s-.471 2.241.54 3.035a13.51 13.51 0 002.22 1.373s1.75.868 1.818-3.4-.337-13.437-.337-13.437-.26-7.161-2.874-7.161c-.052 0-.1 0-.156.008"
                      fill="none"/>
            </clipPath>
            <clipPath id="ai">
                <path data-name="패스 18"
                      d="M1875.06 300.21a4.8 4.8 0 01.337 2.747c-.2 1.806-.271 3.973 1.75 5.78s3.366 2.6 6.192 1.877 7.2-3.033 7.943-4.334.2-1.155-1.413-.94-7.472 1.156-7.472 1.156-3.095.29-2.357-2.672 1.482-4.77-1.076-4.841c-.573-.016-1.108-.032-1.589-.032-1.668 0-2.681.2-2.315 1.259"
                      fill="none"/>
            </clipPath>
            <clipPath id="ak">
                <path data-name="패스 19"
                      d="M1898.9 280.314a5.964 5.964 0 012.981-3.861c1.393-.483 1.393 2.9.53 4.62a3.972 3.972 0 01-2.782 2.206 1.3 1.3 0 01-.481.109c-.6 0-.94-.691-.248-3.074m-.8-10.45a4.34 4.34 0 00.084.47c-3.789.684-8.7 2.12-8.7 2.12-.066 2.482 3.048 2.344 5.7 2.413.517.013 1.412-.042 2.513-.139a9.079 9.079 0 00-1.122 1.105c-1.606 1.869-2.784 5.446-.4 7.446s3.247 2.414 5.433 1.656a5.785 5.785 0 003.778-4.552c.4-2 .264-3.447-1.392-5.033 0 0-.837-.982.609-1.392 3.08-.386 5.685-.746 5.685-.746l.73-.414s.463-2.55-1.06-2.689a73.2 73.2 0 00-7.478-.239l.919-1.914s1.79-2.965-2.185-4.965c0 0-3.162 6.148-3.12 6.873"
                      fill="none"/>
            </clipPath>
            <clipPath id="am">
                <path data-name="패스 20"
                      d="M1909.03 292.422a5.847 5.847 0 012.97-3.753c1.386-.469 1.386 2.815.528 4.491a3.952 3.952 0 01-2.771 2.144 1.344 1.344 0 01-.479.107c-.6 0-.936-.672-.248-2.989m-2.308-4.356c-1.6 1.817-2.77 5.294-.4 7.238s3.233 2.346 5.41 1.609a5.651 5.651 0 003.76-4.423 5.4 5.4 0 00-1.912-5.228 1.541 1.541 0 01.592-2.212 4.243 4.243 0 00-1.426-.212c-1.394 0-3.65.524-6.029 3.228"
                      fill="none"/>
            </clipPath>
            <clipPath id="ao">
                <path data-name="패스 21"
                      d="M1908.991 279.876s-.015.859-.047 1.1c-.093.735-.177 2.279.639 2.855 1.089.771 3.587 2.96 3.523.711-.035-1.218-.427-6.2-.778-10.52a5.462 5.462 0 003.552.256l-1.815 6.6s-.22.6-.316.809a1.988 1.988 0 00.19 2.084c.9 1.185 2.881 3.374 3.841-1.124s2.947-14.5 2.947-14.5a4.367 4.367 0 00-1.73-5.21l-2.436 8.862a25.981 25.981 0 01-4.392.28c-.229-2.764-.408-4.879-.408-4.879s-.576-3.671-3.137-4.381z"
                      fill="none"/>
            </clipPath>
            <clipPath id="aq">
                <path data-name="패스 22"
                      d="M1926.772 293.841c-.477 1.375-1.965 1.874-3.793 2.283-1.4.314-7.624 1.784-14 3.455-6.862 1.8-11.331 2.827-13.1 3.222-.945.209-3.865 1.34-1.879 1.788.263.06 2.484.242 3.018.326 1.6.252 2.216.011 4.44-.326a85.272 85.272 0 008.817-2.1c7.6-2.033 16.5-4.24 17.944-4.523a79.181 79.181 0 0111.826-1.134c5.692.055 7.667.556 8.709-.325 1.025-.869-1.278-2.37-3.244-2.983a11.174 11.174 0 00-4.385-.271c-2.162.434-10.943 2.1-10.973-.251-.015-1.229.01-3 .01-3l-2.513-.111s-.737 3.553-.874 3.952"
                      fill="none"/>
            </clipPath>
            <clipPath id="as">
                <path data-name="패스 23"
                      d="M1925.855 285.161c1.362-.065 3.08-.231 3.936-.32-.1 1.488-.384 3.12-1.172 3.3a2.44 2.44 0 01-.552.067c-1 0-1.816-.76-2.212-3.049m-4.637-6.638s-.228 5.806.569 8.6c.679 2.37 3.392 3.036 6.091 3.7 3.245.8 3.814-.17 4.555-3.245s1.707-9.108 1.707-9.108.627-2.959-1.138-3.13c-2.628-.255-3.188 4.041-3.16 6.5a14.77 14.77 0 01-4.2 1.007l-.1-4.778s.115-3.7-1.764-3.7a1.243 1.243 0 00-.359-.047c-.674 0-2.073.456-2.2 4.2"
                      fill="none"/>
            </clipPath>
            <clipPath id="au">
                <path data-name="패스 24"
                      d="M1931.118 299.314c-.562.045-1.292.2-1.514.226a15.433 15.433 0 00-2.075.655 17.608 17.608 0 00-2.557 1.225c-.9.57-1.724 1.1-1.741 1.117-.2.184-.441.364-.6.5a1.02 1.02 0 00-.32 1.206 1.755 1.755 0 00.457.724 15.477 15.477 0 001.338 1.049 3.9 3.9 0 001.476.429c1.072.132 1.961-.949 2.782-1.609a15.531 15.531 0 013.089-1.844c.553-.11.584 1.237.606 1.47.119 1.317.339 4.89.406 5.233q.045.246.1.519c.314 1.721 2.321.866 2.775-2.67.479-3.715.4-3.657.475-4.579a3.3 3.3 0 00-2.828-3.626 6.6 6.6 0 00-1-.064c-.247 0-.536.009-.867.036"
                      fill="none"/>
            </clipPath>
        </defs>
        <g data-name="그룹 51">
            <path data-name="패스 2"
                  d="M53.586 3.508s-1.093-.5-1.619.226a6.68 6.68 0 00-.824 1.918 4.964 4.964 0 002.127-.811 1.347 1.347 0 00.316-1.333"
                  fill="#8dc220"/>
            <path data-name="패스 3"
                  d="M49.86 0s-3.656 3.083-3.082 5.233a4.457 4.457 0 001.006 1.99l1.072-2.2.254 2.429a3.593 3.593 0 001.97-2.787 5.879 5.879 0 00-1.22-4.66"
                  fill="#8dc220"/>
            <path data-name="패스 4"
                  d="M52.269 7.107a2.747 2.747 0 00-2.26.375l-.817.754s.817.942 1.445.691.941-.816 1.632-1.82"
                  fill="#8dc220"/>
            <path data-name="패스 5"
                  d="M50.278 3.168c-3.28 2.354-3.807 3.424-3.879 3.787a1.051 1.051 0 00-.873.834 5.827 5.827 0 00.219 1.814 4.336 4.336 0 001.254-1.549 1.152 1.152 0 00-.261-1.06 11.218 11.218 0 013.54-3.826"
                  fill="#8dc220"/>
            <path data-name="패스 6"
                  d="M49.202 4.531s-4.77 10.67 8.222 16.445c0 0-6.591-6.4 6.214-13.746 0 0-10.544 3.076-10.042 9.227 0 0-4.9-3.013-4.394-11.926"
                  fill="#046eb7"/>
            <path data-name="패스 7" d="M53.851 10.713a1.537 1.537 0 11-1.538-1.538 1.537 1.537 0 011.538 1.538"
                  fill="#046eb7"/>
            <path data-name="패스 8"
                  d="M110.33 30.022a.548.548 0 01-.333-.117.441.441 0 01-.125-.354.448.448 0 01.125-.34.465.465 0 01.333-.118h8.347a.464.464 0 01.333.118.444.444 0 01.123.34.437.437 0 01-.123.354.546.546 0 01-.333.117zm2.982-5.651v.928h3.494a.452.452 0 01.346.131.443.443 0 01.124.315.475.475 0 01-.124.34.452.452 0 01-.346.13h-3.494v.707c0 .157.075.236.223.236h3.271a.449.449 0 01.346.131.435.435 0 01.124.314.472.472 0 01-.124.339.452.452 0 01-.346.131h-4.187a1.03 1.03 0 01-.746-.222 1.081 1.081 0 01-.222-.772v-2.718h-.406a.456.456 0 01-.346-.129.471.471 0 01-.124-.341.435.435 0 01.124-.314.454.454 0 01.346-.131h5.575a.459.459 0 01.332.118.443.443 0 01.124.34.438.438 0 01-.124.353.552.552 0 01-.332.118zm2.238 8.046a.263.263 0 00-.053-.17.206.206 0 00-.17-.066h-3.441a.5.5 0 01-.333-.1.44.44 0 01-.125-.353.446.446 0 01.125-.341.461.461 0 01.333-.118h4.344a.928.928 0 01.785.268 1.315 1.315 0 01.2.779v1.74a1.205 1.205 0 01-.2.733.926.926 0 01-.772.261h-.392a.265.265 0 01-.3-.3z"
                  fill="#231916"/>
            <path data-name="패스 9"
                  d="M123.623 28.309a1.2 1.2 0 01-.2.733.923.923 0 01-.772.261h-2.616a1.033 1.033 0 01-.746-.222 1.076 1.076 0 01-.222-.772v-3.248h-.235a.449.449 0 01-.346-.131.469.469 0 01-.126-.339.439.439 0 01.126-.315.452.452 0 01.346-.13h1.268c.322 0 .484.169.484.51v1.621h1.532V24.8h-.184a.517.517 0 01-.366-.132.437.437 0 01-.144-.34.406.406 0 01.144-.313.517.517 0 01.366-.131h1.2c.322 0 .485.17.485.51v.823h2.2v-1.1h-.406a.469.469 0 01-.348-.124.456.456 0 01-.123-.334.465.465 0 01.123-.32.443.443 0 01.348-.137h1.582c.323 0 .485.169.485.509v4.71a1.2 1.2 0 01-.2.733.923.923 0 01-.772.261h-.391a.265.265 0 01-.3-.3v-.981h-2.2zm-1.728.144c.148 0 .223-.079.223-.236v-1.02h-1.532v1.02c0 .157.075.236.222.236zm2.812 4.84v.969c0 .156.075.236.223.236h1.7a.46.46 0 01.347.129.446.446 0 01.123.315.471.471 0 01-.123.339.454.454 0 01-.347.131h-2.616a1.03 1.03 0 01-.746-.222 1.074 1.074 0 01-.223-.772V33.28h-.144a.45.45 0 01-.346-.13.472.472 0 01-.125-.341.437.437 0 01.125-.314.45.45 0 01.346-.13h2.382v-.982a.262.262 0 00-.053-.17.2.2 0 00-.171-.065h-1.557a.5.5 0 01-.333-.105.438.438 0 01-.124-.353.445.445 0 01.124-.34.463.463 0 01.333-.119h2.46a.925.925 0 01.785.269 1.311 1.311 0 01.2.778v1.543a.442.442 0 01-.124.354.561.561 0 01-.334.118zm-1.084-6.07h2.2v-1.085h-2.2z"
                  fill="#231916"/>
            <path data-name="패스 10"
                  d="M131.536 26.844a4.191 4.191 0 01-.366 1.7l2.181 2.067a.526.526 0 01.178.321.514.514 0 01-.832.386l-2.028-1.884a5.976 5.976 0 01-.831.962 10.163 10.163 0 01-1.118.908.757.757 0 01-.34.132.551.551 0 01-.49-.517.4.4 0 01.176-.32 4.773 4.773 0 001.354-1.61 4.436 4.436 0 00.451-2.014v-.865h-.406a.463.463 0 01-.346-.124.453.453 0 01-.125-.333.469.469 0 01.125-.321.444.444 0 01.346-.136h1.583q.484 0 .484.509zm4.62-2.63c.322 0 .482.17.482.51v7.2a1.188 1.188 0 01-.195.733.923.923 0 01-.773.262h-.391a.266.266 0 01-.3-.3v-7.483h-.4a.471.471 0 01-.348-.124.454.454 0 01-.125-.335.46.46 0 01.125-.319.442.442 0 01.348-.138z"
                  fill="#231916"/>
            <path data-name="패스 11"
                  d="M6.409 15.467v3.46a1.431 1.431 0 01-.233.869 1.1 1.1 0 01-.917.31h-.465a.314.314 0 01-.356-.357v-4.282h-3.9a.65.65 0 01-.394-.139.517.517 0 01-.149-.419.526.526 0 01.149-.4.551.551 0 01.394-.139h9.9a.554.554 0 01.4.139.532.532 0 01.146.4.523.523 0 01-.146.419.654.654 0 01-.4.139zm-.141-6.175a.3.3 0 00-.063-.2.238.238 0 00-.2-.078H2.39a.583.583 0 01-.394-.124.514.514 0 01-.149-.419.524.524 0 01.149-.4.548.548 0 01.394-.14h4.686a1.1 1.1 0 01.931.319 1.547 1.547 0 01.233.922v2.989a1.425 1.425 0 01-.233.869 1.1 1.1 0 01-.916.31h-.467a.315.315 0 01-.355-.357z"
                  fill="#231916"/>
            <path data-name="패스 12"
                  d="M12.877 15.001v1.506q0 .279.264.279h2.791a.537.537 0 01.412.156.51.51 0 01.149.371.551.551 0 01-.149.4.537.537 0 01-.412.156h-3.881a1.218 1.218 0 01-.885-.264 1.278 1.278 0 01-.263-.915v-1.707h-.17a.534.534 0 01-.411-.155.552.552 0 01-.148-.4.516.516 0 01.148-.372.538.538 0 01.411-.155h3.6v-1.319a.311.311 0 00-.063-.2.243.243 0 00-.2-.078h-2.932a.6.6 0 01-.4-.124.521.521 0 01-.148-.419.533.533 0 01.148-.4.553.553 0 01.4-.139h4a1.1 1.1 0 01.933.318 1.561 1.561 0 01.231.923v1.986a.523.523 0 01-.146.419.657.657 0 01-.4.139zm7.432-6.344c.383 0 .573.2.573.6v8.534a1.42 1.42 0 01-.233.868 1.089 1.089 0 01-.914.311h-.467a.316.316 0 01-.357-.358V9.739h-.48a.55.55 0 01-.41-.147.529.529 0 01-.148-.4.544.544 0 01.148-.381.518.518 0 01.41-.162z"
                  fill="#231916"/>
            <path data-name="패스 13"
                  d="M22.493 19.669a1.816 1.816 0 00.508-.455 1.2 1.2 0 00.236-.62.2.2 0 01-.065.012h-.052a.913.913 0 01-.657-.26.858.858 0 01-.242-.626.871.871 0 01.272-.645.954.954 0 01.7-.265.978.978 0 01.709.276.99.99 0 01.283.74 2.625 2.625 0 01-.359 1.341 2.257 2.257 0 01-1.129.94.289.289 0 01-.213.011.22.22 0 01-.131-.112.238.238 0 01-.005-.171.321.321 0 01.148-.166"
                  fill="#231916"/>
            <g data-name="그룹 2" clip-path="url(#ab)" transform="translate(-1829.649 -255.939)">
                <path data-name="사각형 18" transform="translate(1837.231 277.822)" fill="url(#aa)"
                      d="M0 0h23.157v25.321H0z"/>
            </g>
            <g data-name="그룹 4" clip-path="url(#ac)" transform="translate(-1829.649 -255.939)">
                <path data-name="사각형 19" transform="translate(1861.626 274.667)" fill="url(#ad)"
                      d="M0 0h5.458v36.231H0z"/>
            </g>
            <g data-name="그룹 6" clip-path="url(#ae)" transform="translate(-1829.649 -255.939)">
                <path data-name="사각형 20" transform="translate(1868.473 280.676)" fill="url(#af)"
                      d="M0 0h15.954v17.088H0z"/>
            </g>
            <g data-name="그룹 8" clip-path="url(#ag)" transform="translate(-1829.649 -255.939)">
                <path data-name="사각형 21" transform="translate(1886.553 277.093)" fill="url(#ah)"
                      d="M0 0h5.115v24.863H0z"/>
            </g>
            <g data-name="그룹 10" clip-path="url(#ai)" transform="translate(-1829.649 -255.939)">
                <path data-name="사각형 22" transform="translate(1874.694 298.951)" fill="url(#aj)"
                      d="M0 0h17.328v12.386H0z"/>
            </g>
            <g data-name="그룹 12" clip-path="url(#ak)" transform="translate(-1829.649 -255.939)">
                <path data-name="사각형 23" transform="translate(1889.424 262.991)" fill="url(#al)"
                      d="M0 0h22.066v22.703H0z"/>
            </g>
            <g data-name="그룹 14" clip-path="url(#am)" transform="translate(-1829.649 -255.939)">
                <path data-name="사각형 24" transform="translate(1903.952 284.838)" fill="url(#an)"
                      d="M0 0h11.941v12.813H0z"/>
            </g>
            <g data-name="그룹 16" clip-path="url(#ao)" transform="translate(-1829.649 -255.939)">
                <path data-name="사각형 25" transform="translate(1908.624 262.82)" fill="url(#ap)"
                      d="M0 0h13.383v24.33H0z"/>
            </g>
            <g data-name="그룹 18" clip-path="url(#aq)" transform="translate(-1829.649 -255.939)">
                <path data-name="사각형 26" transform="translate(1892.011 289.889)" fill="url(#ar)"
                      d="M0 0h57.766v15.278H0z"/>
            </g>
            <g data-name="그룹 20" clip-path="url(#as)" transform="translate(-1829.649 -255.939)">
                <path data-name="사각형 27" transform="translate(1920.99 274.32)" fill="url(#at)"
                      d="M0 0h13.776v17.295H0z"/>
            </g>
            <g data-name="그룹 22" clip-path="url(#au)" transform="translate(-1829.649 -255.939)">
                <path data-name="사각형 28" transform="translate(1922.089 299.278)" fill="url(#av)"
                      d="M0 0h13.771v12.659H0z"/>
            </g>
        </g>
    </svg>
    <view id="white" viewBox="0 63.14 144.64 63.14"/>
    <svg width="144.64" height="63.14" viewBox="-4 -4 144.64 63.14" y="63.14" xmlns="http://www.w3.org/2000/svg">
        <path data-name="패스 121"
              d="M51.967 3.734a6.694 6.694 0 00-.825 1.918 4.98 4.98 0 002.129-.812 1.345 1.345 0 00.315-1.333s-1.093-.5-1.619.227zm-4.968 4.319a1.152 1.152 0 00-.261-1.06 4.606 4.606 0 01.411-.745 3.676 3.676 0 00.634.974l1.074-2.2.039.377c-.806 2.648-2.241 10.794 8.527 15.581 0 0-6.59-6.4 6.215-13.746 0 0-10.543 3.076-10.042 9.227 0 0-3.426-2.131-4.245-8.058.266.257.826.713 1.287.528.625-.25.939-.815 1.631-1.82a2.745 2.745 0 00-2.26.376l-.694.641c-.03-.244-.059-.487-.079-.743a3.612 3.612 0 001.843-2.721 5.535 5.535 0 00-.257-2.913c.663-.469 1.4-.973 2.264-1.531 0 0-1.018.6-2.267 1.522A6.029 6.029 0 0049.86.004s-3.656 3.083-3.083 5.233a6.372 6.372 0 00.235.717 2.465 2.465 0 00-.612 1.005 1.052 1.052 0 00-.874.834 5.851 5.851 0 00.217 1.814 4.336 4.336 0 001.256-1.553zm5.31 1.122a1.538 1.538 0 101.538 1.538 1.537 1.537 0 00-1.538-1.537zm58.02 20.847h8.348a.553.553 0 00.333-.118.433.433 0 00.123-.353.446.446 0 00-.123-.341.463.463 0 00-.333-.117h-8.348a.467.467 0 00-.333.117.45.45 0 00-.124.341.437.437 0 00.124.353.558.558 0 00.333.119zm.915-5.665h.407v2.721a1.078 1.078 0 00.222.772 1.029 1.029 0 00.745.222h4.188a.45.45 0 00.346-.131.471.471 0 00.124-.339.439.439 0 00-.124-.314.45.45 0 00-.346-.131h-3.272c-.147 0-.222-.079-.222-.235v-.707h3.494a.457.457 0 00.346-.13.477.477 0 00.124-.341.443.443 0 00-.124-.315.457.457 0 00-.346-.131h-3.494v-.928h3.508a.552.552 0 00.332-.118.438.438 0 00.124-.353.443.443 0 00-.124-.34.462.462 0 00-.332-.117h-5.576a.458.458 0 00-.346.13.442.442 0 00-.123.314.479.479 0 00.123.341.462.462 0 00.346.131zm4.607 10.688h.391a.924.924 0 00.773-.261 1.205 1.205 0 00.2-.733v-1.74a1.317 1.317 0 00-.2-.779.932.932 0 00-.785-.268h-4.344a.456.456 0 00-.333.119.543.543 0 000 .693.5.5 0 00.333.1h3.44a.2.2 0 01.17.066.258.258 0 01.054.17v2.329a.266.266 0 00.301.305zm11.145-11.839h-1.582a.445.445 0 00-.347.137.467.467 0 00-.123.32.455.455 0 00.123.334.468.468 0 00.347.124h.407v1.1h-2.2v-.822c0-.341-.162-.511-.484-.511h-1.2a.515.515 0 00-.366.131.408.408 0 00-.144.313.436.436 0 00.144.34.516.516 0 00.366.132h.183v1.478h-1.531V24.66c0-.341-.162-.51-.484-.51h-1.268a.451.451 0 00-.346.13.438.438 0 00-.126.315.467.467 0 00.126.339.449.449 0 00.346.132h.235v3.244a1.075 1.075 0 00.222.772 1.033 1.033 0 00.746.222h2.616a.923.923 0 00.772-.261 1.2 1.2 0 00.2-.733v-.17h2.2v.981a.265.265 0 00.3.3h.392a.92.92 0 00.771-.262 1.2 1.2 0 00.2-.732v-4.71q-.009-.51-.495-.51zm-4.879 5.011c0 .156-.074.235-.222.235h-1.087c-.147 0-.222-.079-.222-.235v-1.021h1.531zm3.7-1h-2.2v-1.083h2.2zm.81 7.275h-1.7c-.148 0-.223-.08-.223-.236v-.968h1.78a.575.575 0 00.334-.118.443.443 0 00.124-.354v-1.543a1.307 1.307 0 00-.2-.779.923.923 0 00-.784-.268h-2.46a.467.467 0 00-.333.118.445.445 0 00-.124.34.438.438 0 00.124.353.5.5 0 00.333.105h1.557a.205.205 0 01.171.066.261.261 0 01.052.17v.981h-2.381a.45.45 0 00-.346.13.437.437 0 00-.125.314.47.47 0 00.125.341.45.45 0 00.346.13h.144v1.138a1.074 1.074 0 00.223.773 1.028 1.028 0 00.746.221h2.616a.454.454 0 00.347-.131.471.471 0 00.123-.339.442.442 0 00-.123-.314.457.457 0 00-.342-.124zm4.539-5.953a4.214 4.214 0 00.366-1.7V25.7q0-.509-.484-.509h-1.583a.448.448 0 00-.347.136.471.471 0 00-.124.321.455.455 0 00.124.334.471.471 0 00.347.124h.406v.864a4.443 4.443 0 01-.451 2.015 4.77 4.77 0 01-1.354 1.609.4.4 0 00-.176.321.551.551 0 00.49.516.745.745 0 00.34-.132 10.05 10.05 0 001.118-.908 5.987 5.987 0 00.831-.962l2.028 1.884a.514.514 0 00.832-.386.528.528 0 00-.178-.321zm4.986-4.331h-1.584a.441.441 0 00-.347.138.461.461 0 00-.125.32.451.451 0 00.125.334.466.466 0 00.347.124h.406v7.484a.265.265 0 00.3.3h.391a.926.926 0 00.773-.261 1.192 1.192 0 00.195-.733v-7.2c.005-.329-.155-.5-.472-.5zM2.386 9.008H6a.239.239 0 01.2.079.306.306 0 01.064.2v3.693a.315.315 0 00.355.357h.467a1.1 1.1 0 00.915-.311 1.431 1.431 0 00.232-.869V9.163a1.555 1.555 0 00-.232-.923 1.1 1.1 0 00-.93-.319H2.385a.557.557 0 00-.4.14.53.53 0 00-.147.4.519.519 0 00.147.419.594.594 0 00.405.133zm8.447 6.315a.385.385 0 00.071-.106v1.472a1.272 1.272 0 00.262.915 1.224 1.224 0 00.885.263h3.878a.541.541 0 00.412-.155.562.562 0 00.147-.4.52.52 0 00-.147-.372.541.541 0 00-.412-.156h-2.793c-.175 0-.263-.092-.263-.279v-1.5h2.888a.652.652 0 00.4-.14.52.52 0 00.148-.418V12.46a1.56 1.56 0 00-.232-.923 1.106 1.106 0 00-.932-.318h-4a.556.556 0 00-.4.14.534.534 0 00-.147.4.524.524 0 00.147.419.6.6 0 00.4.124h2.931a.241.241 0 01.2.078.316.316 0 01.062.2v1.319h-3.6a.538.538 0 00-.411.155.5.5 0 00-.137.31H.545a.554.554 0 00-.4.139.529.529 0 00-.148.4.519.519 0 00.148.419.661.661 0 00.4.14h3.894v4.281a.314.314 0 00.356.357h.465a1.094 1.094 0 00.916-.31 1.429 1.429 0 00.233-.869v-3.459h4.033a.661.661 0 00.395-.134zm7.594-5.585h.48v8.873a.317.317 0 00.358.358h.465a1.092 1.092 0 00.915-.311 1.42 1.42 0 00.233-.868V9.256q0-.6-.574-.6h-1.877a.523.523 0 00-.41.162.545.545 0 00-.149.381.53.53 0 00.149.4.552.552 0 00.414.144zm4.688 8.863h.053a.211.211 0 00.066-.012 1.214 1.214 0 01-.237.62 1.862 1.862 0 01-.508.456.3.3 0 00-.148.165.238.238 0 00.005.171.222.222 0 00.13.112.294.294 0 00.213-.01 2.256 2.256 0 001.128-.94 2.615 2.615 0 00.362-1.342 1 1 0 00-.283-.739.982.982 0 00-.71-.277.954.954 0 00-.7.265.871.871 0 00-.271.645.857.857 0 00.241.626.91.91 0 00.663.265zm-1.34 7.853l.013-.03s1.382-1.925.262-3.386a3.347 3.347 0 00-2.7-1.16 3.631 3.631 0 00-.523.033s1.052 0-1.25 3.982-8.751 15.332-8.751 15.332-1.249 1.726-.459 2.987 1.382 1.859 2.171 2.124 2.236.863 3.091-1.261c.607-1.507 4.457-10.259 6.645-15.221l5.2 8.783s1.053 2.788 2.894 2.124 2.37-1.328.856-3.186c-1.269-1.556-5.971-8.823-7.445-11.116zm10.2-7.731l.313 28s-.279 2.5.814 3.575c1.444 1.417 4.33 4.656 4.2-1.011s-1.758-21.591-1.758-21.591-.807-8.968-3.566-8.968zm22.732 18.692c-.067-1.518-1.279-1.3-1.279-1.3l1.01-9.1s.193-2.276-1.665-2.277a3.621 3.621 0 00-1.229.253 63.519 63.519 0 01-9.761 2.024 1.561 1.561 0 00-1.751-.723 1.392 1.392 0 00-1.008 1.59l1.681 10.982a1.637 1.637 0 00-.538 1.662c.2 1.155 1.077 1.3 2.087 1.155s11.174-2.528 11.174-2.528a1.589 1.589 0 001.282-1.733zm-5.586-.58l-4.107 1.085c-.068-.868-1.414-7.948-1.414-7.948l6.463-1.229c-.402 2.605-.939 8.097-.939 8.097zm9.617-15.686c-.051 0-.1 0-.154.008l-1.211 19.579s-.472 2.241.537 3.035a13.617 13.617 0 002.222 1.374s1.749.867 1.817-3.4-.337-13.438-.337-13.438-.251-7.153-2.871-7.153zm1.479 28.248c-1.615.216-7.473 1.155-7.473 1.155s-3.095.29-2.355-2.672 1.48-4.77-1.077-4.841c-.574-.016-1.109-.032-1.589-.032-1.668 0-2.681.2-2.315 1.259a4.81 4.81 0 01.336 2.747c-.2 1.806-.269 3.973 1.75 5.78s3.366 2.6 6.192 1.878 7.2-3.034 7.945-4.334.204-1.151-1.411-.935zm-.379-32.887c-.066 2.482 3.048 2.344 5.7 2.413.518.014 1.412-.042 2.514-.139a9 9 0 00-1.122 1.105c-1.605 1.869-2.783 5.447-.4 7.447s3.248 2.414 5.434 1.655a5.784 5.784 0 003.778-4.551c.4-2 .264-3.448-1.392-5.034 0 0-.838-.982.609-1.392a516.7 516.7 0 004.241-.55l.14 6.468s-.017.859-.048 1.1c-.093.736-.177 2.279.639 2.856.426.3 1.066.817 1.686 1.2a9.067 9.067 0 00-4.546 3.029c-1.6 1.816-2.771 5.294-.4 7.237s3.232 2.347 5.41 1.609a5.646 5.646 0 003.76-4.423 5.4 5.4 0 00-1.912-5.228 1.539 1.539 0 01.594-2.211 4.377 4.377 0 00-1.087-.194 2.276 2.276 0 00.014-.31c-.035-1.219-.426-6.2-.777-10.52a5.464 5.464 0 003.553.255l-1.815 6.6s-.221.594-.318.808a1.994 1.994 0 00.189 2.084c.9 1.185 2.883 3.375 3.842-1.124s2.947-14.5 2.947-14.5a4.364 4.364 0 00-1.729-5.21l-2.436 8.863a25.973 25.973 0 01-4.392.279c-.23-2.764-.408-4.879-.408-4.879s-.577-3.671-3.138-4.38l.156 7.2c-1.54-.1-3.9-.205-6.291-.149l.919-1.914s1.79-2.965-2.186-4.965c0 0-3.163 6.148-3.12 6.874a4.322 4.322 0 00.085.469c-3.783.691-8.69 2.127-8.69 2.127zm22.51 16.216c1.386-.47 1.386 2.815.528 4.49a3.947 3.947 0 01-2.771 2.144 1.345 1.345 0 01-.479.107c-.6 0-.936-.671-.247-2.988a5.838 5.838 0 012.972-3.745zm-13.1-8.355a5.958 5.958 0 012.981-3.862c1.392-.483 1.392 2.9.529 4.62a3.976 3.976 0 01-2.781 2.207 1.329 1.329 0 01-.482.108c-.601.005-.934-.685-.244-3.068zm46.607 13.211a11.152 11.152 0 00-4.385-.271c-2.163.433-10.942 2.1-10.973-.251-.007-.613-.005-1.361 0-1.957 1.328-.2 1.767-1.321 2.284-3.473.741-3.074 1.707-9.109 1.707-9.109s.626-2.959-1.137-3.13c-2.629-.255-3.189 4.041-3.16 6.5a14.775 14.775 0 01-4.2 1.007l-.1-4.778s.114-3.7-1.765-3.7a1.231 1.231 0 00-.358-.047c-.674 0-2.073.456-2.2 4.2 0 0-.228 5.806.569 8.6.645 2.251 3.125 2.964 5.686 3.6-.227 1.075-.606 2.849-.7 3.125-.477 1.374-1.965 1.873-3.794 2.282-1.4.314-7.623 1.784-14 3.455-6.861 1.8-11.331 2.828-13.1 3.222-.943.21-3.863 1.34-1.879 1.789.264.059 2.486.241 3.018.325 1.6.252 2.218.012 4.441-.325a85.455 85.455 0 008.816-2.1c7.6-2.034 16.5-4.241 17.944-4.523a79.2 79.2 0 0111.826-1.135c5.693.055 7.668.556 8.71-.325 1.022-.863-1.281-2.364-3.244-2.976zm-16.888-5.383a2.431 2.431 0 01-.551.067c-1 0-1.817-.76-2.213-3.049 1.362-.065 3.08-.231 3.936-.32-.094 1.493-.378 3.125-1.169 3.307zm4.363 11.2a6.673 6.673 0 00-1-.063c-.248 0-.537.008-.869.036-.56.045-1.291.2-1.513.225a15.341 15.341 0 00-2.075.656 17.687 17.687 0 00-2.558 1.224c-.9.57-1.723 1.1-1.74 1.117-.2.184-.442.364-.6.5a1.019 1.019 0 00-.322 1.206 1.765 1.765 0 00.458.724 15.31 15.31 0 001.338 1.049 3.892 3.892 0 001.477.429c1.072.132 1.961-.949 2.781-1.608a15.492 15.492 0 013.09-1.845c.552-.11.584 1.238.6 1.47.119 1.317.339 4.89.406 5.234.031.164.063.336.1.518.314 1.721 2.321.866 2.774-2.67.479-3.715.406-3.657.476-4.579a3.3 3.3 0 00-2.82-3.619z"
              fill="#fff"/>
    </svg>
</svg>