<?xml version="1.0" encoding="utf-8"?>
<svg preserveAspectRatio="none slice" width="150" height="30" viewBox="0 0 150 30" xmlns="http://www.w3.org/2000/svg"
     xmlns:xlink="http://www.w3.org/1999/xlink">
    <svg id="arrowdownwhite" width="13" height="8" viewBox="0 0 13 8" x="0" y="0" xmlns="http://www.w3.org/2000/svg">
        <path id="패스_54" data-name="패스 54" d="M2043.474,531.652a.655.655,0,0,0,.927,0l5.315-5.314a.657.657,0,0,0,0-.928l-.621-.62a.654.654,0,0,0-.926,0L2043.938,529l-4.232-4.211a.655.655,0,0,0-.927,0l-.62.62a.657.657,0,0,0,0,.928Z" transform="translate(-2037.967 -524.597)" fill="#fff"/>
    </svg>
    <svg id="arrowright" width="8" height="13" viewBox="0 0 8 13" x="30" y="0" xmlns="http://www.w3.org/2000/svg">
        <path id="합치기_5" data-name="합치기 5" d="M2041.127,863.778l-.621-.62a.655.655,0,0,1,0-.927l4.211-4.231-4.211-4.231a.655.655,0,0,1,0-.927l.621-.62a.657.657,0,0,1,.928,0l5.314,5.314a.656.656,0,0,1,0,.928l-5.314,5.314a.656.656,0,0,1-.928,0Zm0-52-.621-.62a.655.655,0,0,1,0-.927l4.211-4.231-4.211-4.232a.655.655,0,0,1,0-.927l.621-.619a.656.656,0,0,1,.928,0l5.314,5.314a.656.656,0,0,1,0,.928l-5.314,5.315a.657.657,0,0,1-.928,0Zm0-52-.621-.62a.655.655,0,0,1,0-.927l4.211-4.231-4.211-4.231a.655.655,0,0,1,0-.927l.621-.62a.656.656,0,0,1,.928,0l5.314,5.314a.656.656,0,0,1,0,.928l-5.314,5.314a.657.657,0,0,1-.928,0Z" transform="translate(-2040.314 -748.03)" fill="#4d4d4d"/>
    </svg>
    <svg id="blankbig" width="13" height="13" viewBox="0 0 13 13" x="60" y="0" xmlns="http://www.w3.org/2000/svg">
        <path id="합치기_18" data-name="합치기 18" d="M2821.484,869.961v-9.009h9.008v9.009Zm2.014-1.984h4.978V863h-4.948Zm8.986-3.985v-5h-5v-2.01h7.007v7.009Z" transform="translate(-2821.484 -856.983)" fill="#4d4d4d"/>
    </svg>
    <svg id="blankbigwhite" width="13" height="13" viewBox="0 0 13 13" x="60" y="15" xmlns="http://www.w3.org/2000/svg">
        <path id="합치기_18" data-name="합치기 18" d="M2821.484,869.961v-9.009h9.008v9.009Zm2.014-1.984h4.978V863h-4.948Zm8.986-3.985v-5h-5v-2.01h7.007v7.009Z" transform="translate(-2821.484 -856.983)" fill="#FFF"/>
    </svg>
    <svg id="blankgray" width="11" height="11" viewBox="0 0 11 11" x="90" y="0" xmlns="http://www.w3.org/2000/svg">
        <path id="합치기_3" data-name="합치기 3" d="M2038.453,611.011v-8.023h7.989v8.023Zm1.013-1.045h5.994V604h-5.994Zm9-3.965v-5h-5v-.989h5.958V606Z" transform="translate(-2038.453 -600.007)" fill="#8c8c8c"/>
    </svg>
    <svg id="blankblack" width="11" height="11" viewBox="0 0 11 11" x="120" y="0" xmlns="http://www.w3.org/2000/svg">
        <path id="합치기_2" data-name="합치기 2" d="M2038.453,581.045v-8.024h7.989v8.024Zm1.013-1.046h5.994v-5.965h-5.994Zm9-3.965v-5h-5v-.988h5.958v5.993Z" transform="translate(-2038.453 -570.041)"/>
    </svg>
</svg>