<?xml version="1.0" encoding="utf-8"?>
<svg preserveAspectRatio="none slice" width="176" height="23" viewBox="0 0 176 23" xmlns="http://www.w3.org/2000/svg"
     xmlns:xlink="http://www.w3.org/1999/xlink">
    <svg id="kakaochannel" width="22" height="23" viewBox="0 0 22 23" x="0" y="0" xmlns="http://www.w3.org/2000/svg">
        <path id="패스_88" data-name="패스 88" d="M1785.874,518.959c-5.873,0-10.635,4.426-10.635,9.882a9.65,9.65,0,0,0,4.233,7.891v4.338a.163.163,0,0,0,.088.146.167.167,0,0,0,.169-.013l3.807-2.719a11.359,11.359,0,0,0,2.338.241c5.874,0,10.635-4.425,10.635-9.884S1791.748,518.959,1785.874,518.959Zm-3.174,12.524a2.47,2.47,0,0,0,2.3-1.635h1.6a4.042,4.042,0,0,1-3.9,3.233,4.159,4.159,0,0,1,0-8.313,4.04,4.04,0,0,1,3.9,3.232H1785a2.469,2.469,0,0,0-2.3-1.635,2.561,2.561,0,0,0,0,5.118Zm10.354,1.6h-1.494v-3.668a1.288,1.288,0,0,0-.25-.912.971.971,0,0,0-.714-.249,1.176,1.176,0,0,0-.505.111,1.238,1.238,0,0,0-.418.323,1.573,1.573,0,0,0-.287.521,2.147,2.147,0,0,0-.108.707v3.167h-1.493V524.6h1.5v3.2a2.47,2.47,0,0,1,.6-.444,2.149,2.149,0,0,1,1.041-.252,2.06,2.06,0,0,1,1.586.591,2.559,2.559,0,0,1,.541,1.774Z" transform="translate(-1775.239 -518.959)" fill="#6d5648"/>
    </svg>
    <svg id="blog" width="12" height="16" viewBox="0 0 12 16" x="27" y="3" xmlns="http://www.w3.org/2000/svg">
        <path id="패스_89" data-name="패스 89" d="M1789.063,566.581A4.789,4.789,0,0,0,1786,568v-5.713h-3.6V577.3h3.638v-1.175a3.461,3.461,0,0,0,3.028,1.55,5.312,5.312,0,0,0,5.079-5.6S1793.953,566.581,1789.063,566.581Zm-.793,7.924a2.316,2.316,0,1,1,2.316-2.317A2.319,2.319,0,0,1,1788.27,574.505Z" transform="translate(-1782.397 -562.287)" fill="#00ab4e"/>
    </svg>
    <svg id="facebook" width="11" height="19" viewBox="0 0 11 19" x="49" y="2" xmlns="http://www.w3.org/2000/svg">
        <path id="합치기_13" data-name="합치기 13" d="M1784.289,614.232v-8.893h-2.623v-3.253h2.623v-4.111c0-2.54,2.757-2.625,2.757-2.625h4.289v3.106s-1.53.046-2.45.046a.82.82,0,0,0-.874.872v2.713h3.191v3.253h-3.191v8.893Z" transform="translate(-1781.666 -595.349)" fill="#1b4298"/>
    </svg>
    <svg id="twitter" width="12" height="16" viewBox="0 0 12 16" x="71" y="3" xmlns="http://www.w3.org/2000/svg">
        <path id="패스_92" data-name="패스 92" d="M1791.931,645.929a1.941,1.941,0,0,1-1.931,1.929h-3.4a5.591,5.591,0,0,1-4.088-1.691,5.533,5.533,0,0,1-1.7-4.073v-7.7a1.834,1.834,0,0,1,.578-1.362,1.9,1.9,0,0,1,1.373-.568,1.943,1.943,0,0,1,1.931,1.93v1.929h5.264a1.93,1.93,0,0,1,0,3.86h-5.288v1.907a1.94,1.94,0,0,0,1.907,1.906H1790a1.939,1.939,0,0,1,1.931,1.929" transform="translate(-1780.81 -632.468)" fill="#4991c9"/>
    </svg>
    <svg id="youtube" width="20" height="14" viewBox="0 0 20 14" x="89" y="5" xmlns="http://www.w3.org/2000/svg">
        <path id="패스_93" data-name="패스 93" d="M1795.153,671.716c-.006-.257-.011-.483-.011-.676s-.007-.406-.022-.642-.038-.5-.066-.8-.063-.572-.1-.832-.076-.5-.121-.72a2.718,2.718,0,0,0-.267-.719,2.341,2.341,0,0,0-.463-.588,2.47,2.47,0,0,0-.622-.42,2.274,2.274,0,0,0-.686-.2q-1.174-.111-2.947-.177t-4.143-.067q-2.371,0-4.144.067t-2.947.177a2.266,2.266,0,0,0-.686.2,2.406,2.406,0,0,0-.62.42,2.862,2.862,0,0,0-.454.588,2.085,2.085,0,0,0-.255.719,5.864,5.864,0,0,0-.144.72c-.037.26-.071.536-.1.832s-.052.561-.066.8-.022.451-.022.642-.005.419-.011.676-.012.557-.012.9,0,.642.012.908.011.5.011.688.006.406.022.641.036.5.066.8.063.554.1.82.077.51.121.731a2.94,2.94,0,0,0,.267.708,2.169,2.169,0,0,0,.465.6,2.765,2.765,0,0,0,.62.4,2.268,2.268,0,0,0,.686.2q1.176.132,2.947.2t4.144.066q2.368,0,4.143-.066t2.947-.2a2.276,2.276,0,0,0,.686-.2,2.848,2.848,0,0,0,.622-.4,2.8,2.8,0,0,0,.454-.6,2.17,2.17,0,0,0,.254-.708,5.969,5.969,0,0,0,.143-.731c.038-.266.07-.539.1-.82s.05-.562.066-.8.022-.45.022-.641.005-.421.011-.688.011-.568.011-.908S1795.161,671.975,1795.153,671.716Zm-6.449,1.14a.408.408,0,0,1-.164.163l-3.806,2.371a.386.386,0,0,1-.125.063.54.54,0,0,1-.125.015.422.422,0,0,1-.116-.015.693.693,0,0,1-.119-.047.435.435,0,0,1-.186-.164A.456.456,0,0,1,1784,675v-4.758a.458.458,0,0,1,.063-.241.565.565,0,0,1,.186-.18.556.556,0,0,1,.243-.063.468.468,0,0,1,.242.078l3.806,2.388a.411.411,0,0,1,.164.164.459.459,0,0,1,.055.226A.5.5,0,0,1,1788.7,672.856Z" transform="translate(-1776.243 -665.878)" fill="#e31937"/>
    </svg>
    <svg id="photonews" width="19" height="17" viewBox="0 0 19 17" x="112" y="3" xmlns="http://www.w3.org/2000/svg">
        <path id="패스_94" data-name="패스 94" d="M1795.194,701.52a.917.917,0,0,1,.924.924v11.924a.866.866,0,0,1-.268.633.891.891,0,0,1-.656.269h-16.5a.887.887,0,0,1-.655-.269.858.858,0,0,1-.268-.633V702.444a.917.917,0,0,1,.923-.924h4.018l1.117-2.234a1.016,1.016,0,0,1,.344-.376.849.849,0,0,1,.473-.14h4.6a.853.853,0,0,1,.473.14,1.032,1.032,0,0,1,.344.376l1.117,2.234Zm-6.466,10.646a4.588,4.588,0,1,0-6.005-6.005,4.59,4.59,0,0,0,6.005,6.005Zm-1.784-6.972A2.752,2.752,0,1,1,1785,706a2.648,2.648,0,0,1,1.944-.806Z" transform="translate(-1777.771 -698.77)" fill="#3d3950"/>
    </svg>
    <svg id="instagram" width="20" height="20" viewBox="0 0 20 20" x="133" y="2" xmlns="http://www.w3.org/2000/svg">
        <path id="합치기_28" data-name="합치기 28" d="M1783.065,751.483a5.727,5.727,0,0,1-5.726-5.727v-7.87a5.726,5.726,0,0,1,5.726-5.729h7.875v0a5.726,5.726,0,0,1,5.722,5.729v7.87a5.727,5.727,0,0,1-5.722,5.727Zm-3.315-13.644v8.055a3.227,3.227,0,0,0,3.221,3.219h8.057a3.223,3.223,0,0,0,3.218-3.219v-8.055a3.221,3.221,0,0,0-3.218-3.218h-8.057A3.223,3.223,0,0,0,1779.75,737.839Zm2.419,4.028A4.832,4.832,0,1,1,1787,746.7,4.831,4.831,0,0,1,1782.169,741.867Zm1.7,0a3.134,3.134,0,1,0,3.132-3.136A3.133,3.133,0,0,0,1783.868,741.867Zm7-5.019a1.125,1.125,0,1,1,1.12,1.128A1.125,1.125,0,0,1,1790.871,736.848Z" transform="translate(-1777.339 -732.157)" fill="#ed145b"/>
    </svg>
    <svg id="podbbang" width="17" height="19" viewBox="0 0 17 19" x="157" y="2" xmlns="http://www.w3.org/2000/svg">
        <path id="패스_95" data-name="패스 95" d="M1788.75,737.923a8.038,8.038,0,0,1,3.2.645,8.417,8.417,0,0,1,2.632,1.762,8.184,8.184,0,0,1,1.772,2.621,8.09,8.09,0,0,1,.645,3.223v6.874a3.228,3.228,0,0,1-3.2,3.2h-1.375a.919.919,0,0,1-.924-.924V748h3.674v-1.826a6.273,6.273,0,0,0-.505-2.5,6.431,6.431,0,0,0-3.416-3.416,6.467,6.467,0,0,0-5.006,0,6.431,6.431,0,0,0-3.416,3.416,6.256,6.256,0,0,0-.505,2.5V748H1786v7.326a.919.919,0,0,1-.924.924H1783.7a3.228,3.228,0,0,1-3.2-3.2v-6.874a8.09,8.09,0,0,1,.645-3.223,8.184,8.184,0,0,1,1.772-2.621,8.406,8.406,0,0,1,2.632-1.762,8.031,8.031,0,0,1,3.2-.645Z" transform="translate(-1780.5 -737.923)" fill="#19ae9b"/>
    </svg>
</svg>