<?xml version="1.0" encoding="utf-8"?>
<svg preserveAspectRatio="none slice" width="180" height="90" viewBox="0 0 180 90" xmlns="http://www.w3.org/2000/svg"
     xmlns:xlink="http://www.w3.org/1999/xlink">
    <svg id="sharegray" width="19" height="18" viewBox="0 0 19 18" x="0" y="0" xmlns="http://www.w3.org/2000/svg">
        <g id="그룹_69" data-name="그룹 69" transform="translate(-1860.522 -440.647)">
            <path id="패스_77" data-name="패스 77" d="M1860.522,449.684a3.579,3.579,0,0,1,3.579-3.579h0v1.7a1.879,1.879,0,0,0-1.88,1.878h0a1.881,1.881,0,0,0,1.88,1.877h0a1.882,1.882,0,0,0,1.878-1.877h0a1.881,1.881,0,0,0-1.878-1.878h0v-1.7a3.578,3.578,0,0,1,3.578,3.579h0a3.581,3.581,0,0,1-3.578,3.578h0a3.58,3.58,0,0,1-3.579-3.578Z" fill="#8c8c8c"/>
            <path id="패스_78" data-name="패스 78" d="M1871.434,444.227a3.581,3.581,0,0,1,3.578-3.58h0v1.7a1.881,1.881,0,0,0-1.878,1.878h0a1.88,1.88,0,0,0,1.878,1.878h0a1.883,1.883,0,0,0,1.879-1.878h0a1.882,1.882,0,0,0-1.879-1.878h0v-1.7a3.582,3.582,0,0,1,3.579,3.58h0a3.582,3.582,0,0,1-3.579,3.579h0a3.581,3.581,0,0,1-3.578-3.579Z" fill="#8c8c8c"/>
            <path id="패스_79" data-name="패스 79" d="M1871.434,455.141a3.578,3.578,0,0,1,3.578-3.579h0v1.7a1.882,1.882,0,0,0-1.878,1.88h0a1.881,1.881,0,0,0,1.878,1.878h0a1.883,1.883,0,0,0,1.879-1.878h0a1.883,1.883,0,0,0-1.879-1.88h0v-1.7a3.58,3.58,0,0,1,3.579,3.579h0a3.579,3.579,0,0,1-3.579,3.577h0a3.579,3.579,0,0,1-3.578-3.577Z" fill="#8c8c8c"/>
            <path id="패스_80" data-name="패스 80" d="M1865.8,448.89a.853.853,0,0,1,.368-1.144h0l6-3.094a.852.852,0,0,1,1.145.368h0a.851.851,0,0,1-.368,1.145h0l-6,3.092a.864.864,0,0,1-.388.1h0a.854.854,0,0,1-.758-.462Z" fill="#8c8c8c"/>
            <path id="패스_81" data-name="패스 81" d="M1872.168,454.713l-6-3.092a.852.852,0,0,1-.368-1.145h0a.853.853,0,0,1,1.146-.368h0l6,3.094a.853.853,0,0,1,.368,1.147h0a.852.852,0,0,1-.756.459h0a.859.859,0,0,1-.389-.1Z" fill="#8c8c8c"/>
        </g>
    </svg>
    <svg id="sharewhite" width="19" height="18" viewBox="0 0 19 18" x="0" y="30" xmlns="http://www.w3.org/2000/svg">
        <path id="합치기_20" data-name="합치기 20" d="M2018.292,461.12a3.626,3.626,0,0,1,.082-.764l-4.667-2.4a3.578,3.578,0,1,1-2.749-5.868v1.7a1.877,1.877,0,1,0,1.66,2.753c.011-.028.023-.056.037-.084s.016-.031.025-.046a1.86,1.86,0,0,0,0-1.5c-.008-.014-.016-.028-.023-.042a.823.823,0,0,1-.036-.081,1.878,1.878,0,0,0-1.661-1v-1.7a3.57,3.57,0,0,1,2.75,1.288l4.665-2.4a3.584,3.584,0,0,1,3.5-4.342v1.7a1.876,1.876,0,0,0-1.714,2.643.284.284,0,0,1,.015.028q.018.035.032.07a1.878,1.878,0,1,0,1.667-2.741v-1.7a3.58,3.58,0,1,1-2.748,5.87l-4.667,2.4a3.54,3.54,0,0,1,.082.762,3.593,3.593,0,0,1-.081.76l4.667,2.406a3.567,3.567,0,0,1,2.748-1.288v1.7a1.879,1.879,0,0,0-1.664,1.011.648.648,0,0,1-.035.077l-.019.034a1.878,1.878,0,1,0,1.718-1.122v-1.7a3.578,3.578,0,1,1-3.578,3.579Z" transform="translate(-2007.38 -446.626)" fill="#fff"/>
    </svg>
    <svg id="sharegraysmall" width="15" height="16" viewBox="0 0 15 16" x="0" y="60" xmlns="http://www.w3.org/2000/svg">
        <path id="합치기_1" data-name="합치기 1" d="M181.122,410.833a3,3,0,0,1,.068-.636l-3.891-2.006a2.985,2.985,0,1,1-2.293-4.894v1.418a1.566,1.566,0,1,0,1.386,2.293q.013-.033.029-.066l.019-.034a1.561,1.561,0,0,0,0-1.255l-.018-.033a.721.721,0,0,1-.029-.066,1.565,1.565,0,0,0-1.386-.839V403.3a2.978,2.978,0,0,1,2.294,1.075l3.89-2.006a2.988,2.988,0,0,1,2.916-3.62v1.419a1.566,1.566,0,0,0-1.432,2.2l.015.028q.016.032.029.064a1.566,1.566,0,1,0,1.387-2.292v-1.419a2.985,2.985,0,1,1-2.292,4.895l-3.891,2a3.013,3.013,0,0,1,0,1.271l3.891,2.005a2.975,2.975,0,0,1,2.292-1.075v1.418a1.567,1.567,0,0,0-1.386.838.717.717,0,0,1-.031.069l-.017.031a1.566,1.566,0,1,0,1.434-.938v-1.418a2.984,2.984,0,1,1-2.984,2.985Z" transform="translate(-172.021 -398.746)" fill="#7a7a79"/>
    </svg>
    <svg id="closewhite" width="13" height="12" viewBox="0 0 13 12" x="30" y="0" xmlns="http://www.w3.org/2000/svg">
        <path id="패스_87" data-name="패스 87" d="M1790.406,450.011l-3.886-3.885-3.885,3.885a1,1,0,0,1-1.416,0h0a1,1,0,0,1,0-1.414h0l3.886-3.887-3.886-3.886a1,1,0,0,1,0-1.414h0a1,1,0,0,1,1.416,0h0l3.885,3.885,3.886-3.885a1,1,0,0,1,1.416,0h0a1,1,0,0,1,0,1.414h0l-3.887,3.886,3.887,3.887a1,1,0,0,1,0,1.414h0a1,1,0,0,1-.709.292h0a1,1,0,0,1-.707-.292Z" transform="translate(-1780.926 -439.117)" fill="#fff"/>
    </svg>
    <svg id="closegray" width="13" height="12" viewBox="0 0 13 12" x="30" y="30" xmlns="http://www.w3.org/2000/svg">
        <path id="패스_87" data-name="패스 87" d="M1790.406,450.011l-3.886-3.885-3.885,3.885a1,1,0,0,1-1.416,0h0a1,1,0,0,1,0-1.414h0l3.886-3.887-3.886-3.886a1,1,0,0,1,0-1.414h0a1,1,0,0,1,1.416,0h0l3.885,3.885,3.886-3.885a1,1,0,0,1,1.416,0h0a1,1,0,0,1,0,1.414h0l-3.887,3.886,3.887,3.887a1,1,0,0,1,0,1.414h0a1,1,0,0,1-.709.292h0a1,1,0,0,1-.707-.292Z" transform="translate(-1780.926 -439.117)" fill="#4d4d4d"/>
    </svg>
    <svg id="closewhitesmall" width="9" height="9" viewBox="0 0 9 9" x="30" y="60" xmlns="http://www.w3.org/2000/svg">
        <path id="패스_1" data-name="패스 1" d="M188.706,417.655l-3.19-3.189-3.188,3.189a.823.823,0,0,1-1.162,0h0a.818.818,0,0,1,0-1.16h0l3.189-3.19-3.189-3.19a.818.818,0,0,1,0-1.16h0a.823.823,0,0,1,1.162,0h0l3.188,3.189,3.19-3.189a.823.823,0,0,1,1.162,0h0a.823.823,0,0,1,0,1.16h0l-3.19,3.19,3.19,3.19a.823.823,0,0,1,0,1.16h0a.828.828,0,0,1-.582.24h0a.82.82,0,0,1-.58-.24Z" transform="translate(-180.926 -408.716)" fill="#fff"/>
    </svg>
    <svg id="printgray" width="19" height="18" viewBox="0 0 19 18" x="60" y="0" xmlns="http://www.w3.org/2000/svg">
        <path id="합치기_12" data-name="합치기 12" d="M1935.685,458.995a2.669,2.669,0,0,1-2.669-2.668v-.97h-.967a2.668,2.668,0,0,1-2.669-2.667v-3.638a2.668,2.668,0,0,1,2.669-2.668h.969V443.6a2.666,2.666,0,0,1,2.668-2.668h5.458a2.667,2.667,0,0,1,2.668,2.668v2.788h.969a2.669,2.669,0,0,1,2.669,2.668v3.638a2.668,2.668,0,0,1-2.669,2.667h-.968v.97a2.668,2.668,0,0,1-2.669,2.668Zm0-7.274a.973.973,0,0,0-.969.968v1.742a.848.848,0,0,1,0,.155v1.741a.974.974,0,0,0,.969.97h5.457a.973.973,0,0,0,.969-.97v-1.779c0-.013,0-.026,0-.039s0-.026,0-.039v-1.781a.971.971,0,0,0-.969-.968Zm5.457-1.7a2.669,2.669,0,0,1,2.669,2.668v.97h.968a.975.975,0,0,0,.968-.969v-3.638a.973.973,0,0,0-.968-.969h-12.731a.97.97,0,0,0-.969.969v3.638a.972.972,0,0,0,.969.969h.967v-.97a2.67,2.67,0,0,1,2.669-2.668Zm-6.424-6.425v2.788h7.393V443.6a.969.969,0,0,0-.968-.969h-5.458A.97.97,0,0,0,1934.717,443.6Z" transform="translate(-1929.379 -440.928)" fill="#8c8c8c"/>
    </svg>
    <svg id="printwhite" width="19" height="18" viewBox="0 0 19 18" x="60" y="30" xmlns="http://www.w3.org/2000/svg">
        <path id="합치기_12" data-name="합치기 12" d="M1935.685,458.995a2.669,2.669,0,0,1-2.669-2.668v-.97h-.967a2.668,2.668,0,0,1-2.669-2.667v-3.638a2.668,2.668,0,0,1,2.669-2.668h.969V443.6a2.666,2.666,0,0,1,2.668-2.668h5.458a2.667,2.667,0,0,1,2.668,2.668v2.788h.969a2.669,2.669,0,0,1,2.669,2.668v3.638a2.668,2.668,0,0,1-2.669,2.667h-.968v.97a2.668,2.668,0,0,1-2.669,2.668Zm0-7.274a.973.973,0,0,0-.969.968v1.742a.848.848,0,0,1,0,.155v1.741a.974.974,0,0,0,.969.97h5.457a.973.973,0,0,0,.969-.97v-1.779c0-.013,0-.026,0-.039s0-.026,0-.039v-1.781a.971.971,0,0,0-.969-.968Zm5.457-1.7a2.669,2.669,0,0,1,2.669,2.668v.97h.968a.975.975,0,0,0,.968-.969v-3.638a.973.973,0,0,0-.968-.969h-12.731a.97.97,0,0,0-.969.969v3.638a.972.972,0,0,0,.969.969h.967v-.97a2.67,2.67,0,0,1,2.669-2.668Zm-6.424-6.425v2.788h7.393V443.6a.969.969,0,0,0-.968-.969h-5.458A.97.97,0,0,0,1934.717,443.6Z" transform="translate(-1929.379 -440.928)" fill="#FFF"/>
    </svg>
    <svg id="homegray" width="18" height="18" viewBox="0 0 18 18" x="90" y="0" xmlns="http://www.w3.org/2000/svg">
        <path id="합치기_7" data-name="합치기 7" d="M1837,988.2a3,3,0,0,1-3-3V978a3.668,3.668,0,0,1,1.417-2.894l5.332-4.147a3.663,3.663,0,0,1,4.5,0l5.333,4.147A3.669,3.669,0,0,1,1852,978v7.2a3,3,0,0,1-3,3Zm4.977-15.663-5.333,4.148A1.666,1.666,0,0,0,1836,978v7.2a1,1,0,0,0,1,1h12a1,1,0,0,0,1-1V978a1.668,1.668,0,0,0-.616-1.3l-.027-.02-5.333-4.148a1.662,1.662,0,0,0-2.046,0Zm-.644,7.983a1.667,1.667,0,1,1,1.668,1.666A1.668,1.668,0,0,1,1841.335,980.52Z" transform="translate(-1834.001 -970.185)" fill="#ccc"/>
    </svg>
    <svg id="homewhite" width="18" height="18" viewBox="0 0 18 18" x="90" y="30" xmlns="http://www.w3.org/2000/svg">
        <path id="합치기_7" data-name="합치기 7" d="M1837,988.2a3,3,0,0,1-3-3V978a3.668,3.668,0,0,1,1.417-2.894l5.332-4.147a3.663,3.663,0,0,1,4.5,0l5.333,4.147A3.669,3.669,0,0,1,1852,978v7.2a3,3,0,0,1-3,3Zm4.977-15.663-5.333,4.148A1.666,1.666,0,0,0,1836,978v7.2a1,1,0,0,0,1,1h12a1,1,0,0,0,1-1V978a1.668,1.668,0,0,0-.616-1.3l-.027-.02-5.333-4.148a1.662,1.662,0,0,0-2.046,0Zm-.644,7.983a1.667,1.667,0,1,1,1.668,1.666A1.668,1.668,0,0,1,1841.335,980.52Z" transform="translate(-1834.001 -970.185)" fill="#FFF"/>
    </svg>
    <svg id="homegraysmall" width="16" height="16" viewBox="0 0 16 16" x="90" y="60" xmlns="http://www.w3.org/2000/svg">
        <path id="합치기_1" data-name="합치기 1" d="M258.686,409.9A2.684,2.684,0,0,1,256,407.22v-6.443a3.284,3.284,0,0,1,1.268-2.591l4.77-3.71a3.276,3.276,0,0,1,4.03,0l4.772,3.71a3.285,3.285,0,0,1,1.266,2.591v6.443a2.686,2.686,0,0,1-2.684,2.686Zm4.455-14.016-4.773,3.711a1.492,1.492,0,0,0-.578,1.178v6.443a.9.9,0,0,0,.9.9h10.738a.9.9,0,0,0,.894-.9v-6.443a1.488,1.488,0,0,0-.55-1.158l-.024-.02-4.774-3.711a1.485,1.485,0,0,0-1.829,0Zm-.578,7.142a1.492,1.492,0,1,1,1.492,1.491A1.493,1.493,0,0,1,262.563,403.031Z" transform="translate(-256.001 -393.783)" fill="#c2c1c0"/>
    </svg>
    <svg id="arrowgray" width="6" height="9" viewBox="0 0 6 9" x="120" y="0" xmlns="http://www.w3.org/2000/svg">
        <path id="패스_69" data-name="패스 69" d="M1868.047,981.309a.47.47,0,0,0,0-.662l-3.8-3.8a.466.466,0,0,0-.662,0l-.443.442a.468.468,0,0,0,0,.662l3.007,3.023L1863.145,984a.468.468,0,0,0,0,.662l.443.443a.468.468,0,0,0,.662,0Z" transform="translate(-1863.008 -976.713)" fill="#ccc"/>
    </svg>
    <svg id="arrowwhite" width="6" height="9" viewBox="0 0 6 9" x="120" y="30" xmlns="http://www.w3.org/2000/svg">
        <path id="패스_69" data-name="패스 69" d="M1868.047,981.309a.47.47,0,0,0,0-.662l-3.8-3.8a.466.466,0,0,0-.662,0l-.443.442a.468.468,0,0,0,0,.662l3.007,3.023L1863.145,984a.468.468,0,0,0,0,.662l.443.443a.468.468,0,0,0,.662,0Z" transform="translate(-1863.008 -976.713)" fill="#FFF"/>
    </svg>
    <svg id="roundarrowwhite" width="18" height="18" viewBox="0 0 18 18" x="150" y="0" xmlns="http://www.w3.org/2000/svg">
        <path id="패스_152" data-name="패스 152" d="M1948.293,1019.986a9,9,0,1,0,9,9A9,9,0,0,0,1948.293,1019.986Zm3.707,8.207-3,3a1,1,0,0,1-.707.292.988.988,0,0,1-.708-.292l-3-3a1,1,0,0,1,1.415-1.416l2.291,2.293,2.294-2.291a1,1,0,0,1,1.415,1.414Z" transform="translate(-1939.293 -1019.986)" fill="#fff"/>
    </svg>
    <svg id="roundarrowyellow" width="18" height="18" viewBox="0 0 18 18" x="150" y="30" xmlns="http://www.w3.org/2000/svg">
        <path id="패스_152" data-name="패스 152" d="M1948.293,1019.986a9,9,0,1,0,9,9A9,9,0,0,0,1948.293,1019.986Zm3.707,8.207-3,3a1,1,0,0,1-.707.292.988.988,0,0,1-.708-.292l-3-3a1,1,0,0,1,1.415-1.416l2.291,2.293,2.294-2.291a1,1,0,0,1,1.415,1.414Z" transform="translate(-1939.293 -1019.986)" fill="#fcce0d"/>
    </svg>
</svg>