<svg xmlns="http://www.w3.org/2000/svg" width="40.804" height="40.799" viewBox="0 0 40.804 40.799">
  <path id="합치기_8" data-name="합치기 8" d="M1876.178,3501.8l-1.816-1.816a5.708,5.708,0,0,1-1.325.155h-29.4a5.7,5.7,0,0,1-5.7-5.7v-18.9a5.7,5.7,0,0,1,5.7-5.7h.58l-5.841-5.842a1.5,1.5,0,0,1,2.121-2.118l24.264,24.264.031.031,13.5,13.5a1.5,1.5,0,0,1-2.121,2.121Zm-35.238-26.261v18.9a2.7,2.7,0,0,0,2.7,2.7h27.878l-7.673-7.673a7.822,7.822,0,0,1-5.488,2.272h-.011a7.8,7.8,0,0,1-5.533-13.306l-5.749-5.749a5.619,5.619,0,0,1-1.326.155h-2.1A2.7,2.7,0,0,0,1840.94,3475.537Zm12.6,8.4a4.8,4.8,0,0,0,8.185,3.4l-6.791-6.791A4.812,4.812,0,0,0,1853.539,3483.94Zm22.2,8.4v-16.8a2.7,2.7,0,0,0-2.7-2.7l-2.1,0a5.705,5.705,0,0,1-5.7-5.7.6.6,0,0,0-.6-.6h-12.6a.6.6,0,0,0-.424.178,1.5,1.5,0,1,1-2.135-2.11,3.615,3.615,0,0,1,2.559-1.068l12.6,0a3.6,3.6,0,0,1,3.6,3.6,2.7,2.7,0,0,0,2.7,2.7h2.1a5.7,5.7,0,0,1,5.7,5.7l0,16.8a1.5,1.5,0,0,1-3,0Z" transform="translate(-1837.938 -3461.438)" fill="#fff"/>
</svg>
